<svg xmlns="http://www.w3.org/2000/svg" viewBox="0 0 322 152" width="322pt" height="152pt"><path d="M9.25.01c6.05 2.84 11.81 6.3 17.8 9.28-2.65 5.11-6.75 9.91-10.78 14.02-5.46-3.24-10.88-6.24-16.11-9.84C3.41 9.15 6.2 4.48 9.25.01zM159.5 11.41c-.27 4.86-1.92 9.77-2.99 14.53-1.82 6.79-3.37 13.64-5.16 20.43 5.17 6.63 11.42 12.27 16.13 19.21-1.62 11.15-.7 22.18-1.69 33.38-.71 8.41-.38 16.81-.98 25.21 1.87.64 3.75 1.29 5.64 1.87.15.56.3 1.12.44 1.68-3.24 5.7-6.71 11.27-9.87 17.02-5.18-2.23-10.22-4.83-15.27-7.34-.49-.82-.98-1.65-1.47-2.48.19-21.96.04-43.95.08-65.92.41-4.76-2.99-8.48-5.06-12.48-2.7-5.18-5.77-10.16-8.24-15.44 6.89-6.51 12.74-13.89 19.39-20.62 3.08-3.18 5.54-6.46 9.05-9.05zM37.15 31.6l.81.59c2.5 1.85 4.98 3.71 7.44 5.62 1.51-2.09 2.95-4.25 4.56-6.26 7.06 1.55 13.89 4.45 20.85 6.43.87 10.85.11 21.87.41 32.77 1.43.4 2.86.79 4.3 1.16.16.61.32 1.21.48 1.81-2.91 4.06-5.34 8.51-7.93 12.8-4.76-.04-8.93-1.69-13.62-2.47-.17-10.82-.18-21.65-.21-32.47-2.11-.77-4.24-1.46-6.39-2.11 0 11.93.05 23.85-.07 35.77-5.71-.02-11.43-.09-17.14.1.08-11.94-.01-23.88.08-35.82-1.94-.65-3.85-1.34-5.76-2.08 2.4-4.02 5.03-7.91 7.44-11.93 1.43-1.94 1.77-4.3 4.75-3.91z"/><path d="M10.08 32.64c4.34 1.85 8.34 4.62 12.38 7.05.92 9.95-.09 20.3.48 30.31 1.25 1.63 4.23 2.14 6.05 3.04-3.75 4.72-7.06 10.11-11.45 14.18-4.27-2.39-8.87-3.82-12.04-7.51.25-10.2.05-20.4.12-30.6-1.87-.66-3.74-1.31-5.61-1.99 3.09-4.98 6.47-9.85 10.07-14.48zM109.28 55.41c.16 9.37.04 18.75.07 28.13 2.06-2.04 4.3-3.84 6.45-5.78.99-.31 1.96-.64 2.93-1 1.1.3 2.18.75 3.22 1.35 5.23 1.26 10.33 3.03 15.5 4.53.01 15.14 0 30.28-.02 45.42-6.23 5.03-12.54 10.04-18.57 15.3-6.29.38-12.78-2.75-18.84-4.29-3.74-1.23-7.53-2.26-11.37-3.17.06-24.23.13-48.46-.04-72.69 6.97-2.4 13.57-6.09 20.67-7.8zM296.24 76.4c3.25 1.6 6.28 3.97 9.32 5.98 5 3.49 10.24 6.62 15.12 10.29-8.06 9.86-14.88 20.76-22.72 30.8 7.91 1.75 15.96 2.87 23.92 4.34-1 1.63-2.16 3.11-3.57 4.42-4.38 4.16-7.95 8.57-12.84 12.2-4.62-1.63-9.84-1.89-14.72-2.79-5-.71-9.94-1.92-14.97-2.36-.93-3.8-.59-7.43-.61-11.3.05-12.29-.06-24.61.02-36.9-.1-1.68 1.2-2.06 2.35-2.9 6.29-3.83 12.54-7.73 18.7-11.78zM196.32 77.74c7.55 2.11 15.44 3.67 23.15 5.09.27 13.48.06 26.97.08 40.45 2.16 1.57 4.37 3.05 6.54 4.59-4 5.78-7.9 11.92-12.83 16.94-3.63-2.57-6.99-5.49-10.57-8.12-2.58 2.75-4.64 5.64-8.16 7.3-7.53-2.1-15.21-3.55-22.7-5.85.03-15.04 0-30.09.01-45.14 6.29-4.68 12.22-9.83 18.45-14.59 1.8-1.66 3.79-.69 6.03-.67z"/><path d="M237.69 77.27c5.07-.16 9.51 1.34 14.44 2.18 7.53 1.32 15 2.5 22.43 4.4-7.41 12.83-14.38 25.94-21.92 38.68 6.38-1.12 12.84-1.59 19.2-2.84-2.79 7.82-7.27 15.04-10.66 22.62-.95.68-1.89 1.36-2.82 2.05-10.71-.18-21.44-1.36-32.15-1.15 6.32-12.73 12.8-25.42 18.78-38.31-7.21-.05-14.37.23-21.56.47 0-1.12.2-2.16.6-3.11 4.58-8.3 9.12-16.66 13.66-24.99z"/><path d="M110.01 95.63c2.49.49 4.94 1.48 7.34 2.31.09 8.2-.03 16.39.08 24.59-2.69-.72-5.37-1.45-8.08-2.1.01-6.82.01-13.64-.02-20.46.08-1.46-.14-3.08.68-4.34z" fill="#fff"/><path d="M51.86 97.6c7.66.53 14.89 3.77 22.49 4.32.29 10.75.07 21.53.11 32.29 1.77 1.21 3.57 2.39 5.34 3.6-3.32 4.65-6.91 9.13-10.04 13.92-3.13-2.09-6.09-4.28-8.89-6.8-1.77 1.84-3.53 3.69-5.23 5.6-6.47-.63-12.8-2.77-19.14-4.17-.65-10.42-.1-20.94-.33-31.38.15-1.75-.5-4.45 1.14-5.6 4.79-3.99 9.82-7.69 14.55-11.78z"/><path d="M192.33 97.24c2.4.53 4.63 1.55 7.01 2.15-.15 8.46-.03 16.92-.07 25.38-2.28-.64-4.56-1.23-6.86-1.79-.07-8.58.04-17.16-.08-25.74zM292.86 97.81c1.97 1.89 4 3.69 6.2 5.31-2.25 2.33-4.49 4.67-6.69 7.05.33-4.12.37-8.24.49-12.36zM52.84 114.05c1.64.25 3.24.66 4.84 1.07.02 6.62-.06 13.24.03 19.86-1.68-.37-3.37-.75-5.05-1.14.24-6.59-.11-13.2.18-19.79z" fill="#fff"/></svg>